# File created by Blade
# Date/Time:  Tue Jan 27 20:07:51 2015
# Frame Rate: 120.000 fps
#------------------------------------------------------
:FULLY-SPECIFIED
:DEGREES
3333
root 4.858275 33.851444 -4.553843 31.994407 -33.803085 -30.841634
Spine -1.190255 24.896676 1.403381
Head -12.510471 -1.204252 10.771236
LeftShoulder -14.680604 -0.784401 30.503704
LeftArm -15.353511 -40.078972 -69.939148
LeftForeArm -51.760761 0.000000 125.172829
LeftHand 10.126086 -0.000000 -43.488334
LeftHandThumb1 -26.253704 0.000000 33.147579
RightShoulder -10.407225 -3.463021 -20.833332
RightArm 25.535010 -37.975667 88.885657
RightForeArm -18.059992 -0.000000 17.844846
RightHand 16.835034 0.000000 3.380498
RightHandThumb1 -24.326973 -0.000000 -32.862282
LeftUpLeg -3.611497 23.393618 12.579485
LeftLeg -9.441463 -0.000000 0.000000
LeftFoot -15.984088 17.029411 -17.221510
LeftToeBase 19.325900 -0.000000 -0.000000
RightUpLeg 32.224682 -53.772215 -52.945326
RightLeg 119.799629 -0.000000 -0.000000
RightFoot 34.878535 -23.936957 23.713777
RightToeBase 17.387036 -0.000000 -0.000000
3334
root 4.855759 33.848755 -4.563641 31.946046 -33.817470 -30.805914
Spine -1.102005 24.852716 1.363015
Head -12.721296 -1.163951 10.911876
LeftShoulder -14.718479 -0.773915 30.536175
LeftArm -15.386433 -40.174262 -69.820670
LeftForeArm -51.868654 0.000000 125.085380
LeftHand 10.178056 0.000000 -43.356226
LeftHandThumb1 -26.253704 0.000000 33.147579
RightShoulder -10.404982 -3.439590 -20.811470
RightArm 25.489269 -37.888776 88.928946
RightForeArm -17.903751 -0.000000 17.815477
RightHand 16.923636 -0.000000 3.599374
RightHandThumb1 -24.326973 -0.000000 -32.862282
LeftUpLeg -3.609831 23.378818 12.569841
LeftLeg -9.402605 -0.000000 0.000000
LeftFoot -16.057251 17.005224 -17.291050
LeftToeBase 19.470263 -0.000000 -0.000000
RightUpLeg 32.430403 -54.224071 -53.094918
RightLeg 119.119603 -0.000000 -0.000000
RightFoot 34.824934 -23.943224 23.665202
RightToeBase 17.139846 -0.000000 -0.000000
3335
root 4.850154 33.845861 -4.571654 31.896811 -33.837078 -30.776934
Spine -1.028245 24.819535 1.316338
Head -12.891170 -1.144410 11.034968
LeftShoulder -14.756297 -0.769220 30.573011
LeftArm -15.394511 -40.236403 -69.736517
LeftForeArm -51.874506 -0.000000 125.027928
LeftHand 10.160720 -0.000000 -43.502594
LeftHandThumb1 -26.253704 0.000000 33.147579
RightShoulder -10.369458 -3.446608 -20.795904
RightArm 25.426140 -37.797034 89.014998
RightForeArm -18.038910 -0.000000 17.777701
RightHand 16.871841 0.000000 3.611291
RightHandThumb1 -24.326973 -0.000000 -32.862282
LeftUpLeg -3.579317 23.501353 12.545237
LeftLeg -9.418809 -0.000000 0.000000
LeftFoot -16.009865 16.909236 -17.249673
LeftToeBase 19.430586 -0.000000 -0.000000
RightUpLeg 32.620923 -54.634112 -53.196304
RightLeg 118.424591 -0.000000 -0.000000
RightFoot 34.660955 -24.048737 23.933762
RightToeBase 16.986823 -0.000000 -0.000000
3336
root 4.844759 33.843216 -4.580166 31.835851 -33.832131 -30.723433
Spine -0.959529 24.776398 1.261421
Head -13.037807 -1.186145 11.139361
LeftShoulder -14.780665 -0.768842 30.604697
LeftArm -15.355548 -40.281330 -69.694251
LeftForeArm -51.888445 -0.000000 124.984698
LeftHand 10.148577 -0.000000 -43.543836
LeftHandThumb1 -26.253704 0.000000 33.147579
RightShoulder -10.339868 -3.426420 -20.803551
RightArm 25.341539 -37.778999 89.106333
RightForeArm -18.129577 0.000000 17.715774
RightHand 16.856041 -0.000000 3.402114
RightHandThumb1 -24.326973 -0.000000 -32.862282
LeftUpLeg -3.561796 23.551366 12.517827
LeftLeg -9.431630 -0.000000 0.000000
LeftFoot -15.972572 16.852294 -17.208044
LeftToeBase 19.402494 -0.000000 -0.000000
RightUpLeg 32.916921 -55.100959 -53.385007
RightLeg 117.730988 -0.000000 -0.000000
RightFoot 34.354790 -24.216852 24.138858
RightToeBase 17.505153 -0.000000 -0.000000
3337
root 4.838442 33.840350 -4.589478 31.774568 -33.811771 -30.665605
Spine -0.897271 24.741449 1.211505
Head -13.144143 -1.240252 11.213032
LeftShoulder -14.790883 -0.783544 30.632268
LeftArm -15.294551 -40.279211 -69.677232
LeftForeArm -51.916390 -0.000000 124.957771
LeftHand 10.154704 -0.000000 -43.518491
LeftHandThumb1 -26.253704 0.000000 33.147579
RightShoulder -10.302412 -3.448280 -20.821662
RightArm 25.274041 -37.707709 89.200791
RightForeArm -18.099004 -0.000000 17.684300
RightHand 16.921281 -0.000000 3.417730
RightHandThumb1 -24.326973 -0.000000 -32.862282
LeftUpLeg -3.545912 23.564423 12.499032
LeftLeg -9.453600 -0.000000 0.000000
LeftFoot -15.947638 16.803125 -17.193161
LeftToeBase 19.470423 -0.000000 -0.000000
RightUpLeg 33.231802 -55.554959 -53.577368
RightLeg 117.052419 -0.000000 -0.000000
RightFoot 34.089236 -24.381039 24.455876
RightToeBase 17.965227 -0.000000 -0.000000
